<svg id="visual" viewBox="0 0 900 600" width="900" height="600" xmlns="http://www.w3.org/2000/svg" xmlns:xlink="http://www.w3.org/1999/xlink" version="1.1"><g stroke-width="1" stroke-linejoin="bevel"><path d="M444 309L370 265L415 345Z" fill="#3d4852" stroke="#3d4852"></path><path d="M412 187L344 242L370 265Z" fill="#afb6ba" stroke="#afb6ba"></path><path d="M370 265L364 384L415 345Z" fill="#c8ced1" stroke="#c8ced1"></path><path d="M444 309L468 247L370 265Z" fill="#969fa4" stroke="#969fa4"></path><path d="M290 360L364 384L370 265Z" fill="#16222d" stroke="#16222d"></path><path d="M444 309L501 275L468 247Z" fill="#7f888f" stroke="#7f888f"></path><path d="M510 409L501 275L444 309Z" fill="#e2e6e8" stroke="#e2e6e8"></path><path d="M412 187L323 218L344 242Z" fill="#7f888f" stroke="#7f888f"></path><path d="M264 275L290 360L370 265Z" fill="#16222d" stroke="#16222d"></path><path d="M526 205L412 187L468 247Z" fill="#68727a" stroke="#68727a"></path><path d="M468 247L412 187L370 265Z" fill="#16222d" stroke="#16222d"></path><path d="M264 275L370 265L344 242Z" fill="#29353f" stroke="#29353f"></path><path d="M364 384L459 414L415 345Z" fill="#525d66" stroke="#525d66"></path><path d="M415 345L459 414L444 309Z" fill="#29353f" stroke="#29353f"></path><path d="M323 218L264 275L344 242Z" fill="#16222d" stroke="#16222d"></path><path d="M459 414L510 409L444 309Z" fill="#c8ced1" stroke="#c8ced1"></path><path d="M588 197L526 205L501 275Z" fill="#16222d" stroke="#16222d"></path><path d="M501 275L526 205L468 247Z" fill="#969fa4" stroke="#969fa4"></path><path d="M265 426L386 466L364 384Z" fill="#525d66" stroke="#525d66"></path><path d="M364 384L386 466L459 414Z" fill="#7f888f" stroke="#7f888f"></path><path d="M459 414L509 451L510 409Z" fill="#00101c" stroke="#00101c"></path><path d="M327 71L274 186L323 218Z" fill="#3d4852" stroke="#3d4852"></path><path d="M323 218L243 225L264 275Z" fill="#969fa4" stroke="#969fa4"></path><path d="M526 205L421 132L412 187Z" fill="#e2e6e8" stroke="#e2e6e8"></path><path d="M412 187L421 132L323 218Z" fill="#16222d" stroke="#16222d"></path><path d="M274 186L243 225L323 218Z" fill="#525d66" stroke="#525d66"></path><path d="M194 358L265 426L290 360Z" fill="#7f888f" stroke="#7f888f"></path><path d="M189 330L290 360L264 275Z" fill="#7f888f" stroke="#7f888f"></path><path d="M290 360L265 426L364 384Z" fill="#3d4852" stroke="#3d4852"></path><path d="M510 409L575 352L501 275Z" fill="#969fa4" stroke="#969fa4"></path><path d="M453 509L509 451L459 414Z" fill="#7f888f" stroke="#7f888f"></path><path d="M510 409L620 474L575 352Z" fill="#29353f" stroke="#29353f"></path><path d="M170 232L189 330L264 275Z" fill="#afb6ba" stroke="#afb6ba"></path><path d="M189 330L194 358L290 360Z" fill="#00101c" stroke="#00101c"></path><path d="M484 38L397 88L421 132Z" fill="#969fa4" stroke="#969fa4"></path><path d="M421 132L327 71L323 218Z" fill="#00101c" stroke="#00101c"></path><path d="M386 466L453 509L459 414Z" fill="#00101c" stroke="#00101c"></path><path d="M395 519L453 509L386 466Z" fill="#68727a" stroke="#68727a"></path><path d="M626 303L588 197L501 275Z" fill="#afb6ba" stroke="#afb6ba"></path><path d="M526 205L509 111L421 132Z" fill="#e2e6e8" stroke="#e2e6e8"></path><path d="M334 511L395 519L386 466Z" fill="#525d66" stroke="#525d66"></path><path d="M265 426L334 511L386 466Z" fill="#00101c" stroke="#00101c"></path><path d="M240 526L334 511L265 426Z" fill="#16222d" stroke="#16222d"></path><path d="M588 197L509 111L526 205Z" fill="#00101c" stroke="#00101c"></path><path d="M645 322L626 303L575 352Z" fill="#3d4852" stroke="#3d4852"></path><path d="M575 352L626 303L501 275Z" fill="#3d4852" stroke="#3d4852"></path><path d="M189 139L170 232L243 225Z" fill="#c8ced1" stroke="#c8ced1"></path><path d="M243 225L170 232L264 275Z" fill="#00101c" stroke="#00101c"></path><path d="M112 398L150 412L194 358Z" fill="#00101c" stroke="#00101c"></path><path d="M189 139L243 225L274 186Z" fill="#afb6ba" stroke="#afb6ba"></path><path d="M369 0L327 71L397 88Z" fill="#68727a" stroke="#68727a"></path><path d="M397 88L327 71L421 132Z" fill="#00101c" stroke="#00101c"></path><path d="M194 358L216 462L265 426Z" fill="#3d4852" stroke="#3d4852"></path><path d="M453 509L542 499L509 451Z" fill="#68727a" stroke="#68727a"></path><path d="M509 451L620 474L510 409Z" fill="#00101c" stroke="#00101c"></path><path d="M516 600L542 499L453 509Z" fill="#16222d" stroke="#16222d"></path><path d="M663 337L645 322L575 352Z" fill="#00101c" stroke="#00101c"></path><path d="M660 180L613 160L588 197Z" fill="#969fa4" stroke="#969fa4"></path><path d="M327 71L233 105L274 186Z" fill="#525d66" stroke="#525d66"></path><path d="M660 180L588 197L626 303Z" fill="#c8ced1" stroke="#c8ced1"></path><path d="M588 197L613 160L509 111Z" fill="#16222d" stroke="#16222d"></path><path d="M233 105L214 114L274 186Z" fill="#00101c" stroke="#00101c"></path><path d="M214 114L189 139L274 186Z" fill="#525d66" stroke="#525d66"></path><path d="M685 433L663 337L575 352Z" fill="#7f888f" stroke="#7f888f"></path><path d="M705 221L660 180L626 303Z" fill="#e2e6e8" stroke="#e2e6e8"></path><path d="M119 316L194 358L189 330Z" fill="#e2e6e8" stroke="#e2e6e8"></path><path d="M194 358L150 412L216 462Z" fill="#3d4852" stroke="#3d4852"></path><path d="M135 531L240 526L216 462Z" fill="#c8ced1" stroke="#c8ced1"></path><path d="M216 462L240 526L265 426Z" fill="#969fa4" stroke="#969fa4"></path><path d="M334 511L360 600L395 519Z" fill="#68727a" stroke="#68727a"></path><path d="M613 160L562 79L509 111Z" fill="#68727a" stroke="#68727a"></path><path d="M509 111L484 38L421 132Z" fill="#68727a" stroke="#68727a"></path><path d="M562 79L484 38L509 111Z" fill="#e2e6e8" stroke="#e2e6e8"></path><path d="M170 232L119 316L189 330Z" fill="#e2e6e8" stroke="#e2e6e8"></path><path d="M70 333L119 316L51 257Z" fill="#969fa4" stroke="#969fa4"></path><path d="M542 499L620 474L509 451Z" fill="#29353f" stroke="#29353f"></path><path d="M705 221L626 303L645 322Z" fill="#29353f" stroke="#29353f"></path><path d="M613 160L606 50L562 79Z" fill="#29353f" stroke="#29353f"></path><path d="M337 600L360 600L334 511Z" fill="#16222d" stroke="#16222d"></path><path d="M395 519L456 600L453 509Z" fill="#c8ced1" stroke="#c8ced1"></path><path d="M542 499L626 539L620 474Z" fill="#525d66" stroke="#525d66"></path><path d="M119 316L112 398L194 358Z" fill="#29353f" stroke="#29353f"></path><path d="M150 412L135 531L216 462Z" fill="#969fa4" stroke="#969fa4"></path><path d="M475 0L369 0L397 88Z" fill="#969fa4" stroke="#969fa4"></path><path d="M327 71L252 0L233 105Z" fill="#29353f" stroke="#29353f"></path><path d="M233 105L167 56L214 114Z" fill="#3d4852" stroke="#3d4852"></path><path d="M360 600L456 600L395 519Z" fill="#3d4852" stroke="#3d4852"></path><path d="M240 526L337 600L334 511Z" fill="#16222d" stroke="#16222d"></path><path d="M503 0L475 0L484 38Z" fill="#00101c" stroke="#00101c"></path><path d="M484 38L475 0L397 88Z" fill="#68727a" stroke="#68727a"></path><path d="M697 533L685 433L620 474Z" fill="#afb6ba" stroke="#afb6ba"></path><path d="M620 474L685 433L575 352Z" fill="#969fa4" stroke="#969fa4"></path><path d="M751 261L705 221L645 322Z" fill="#29353f" stroke="#29353f"></path><path d="M751 261L645 322L663 337Z" fill="#00101c" stroke="#00101c"></path><path d="M606 50L503 0L562 79Z" fill="#c8ced1" stroke="#c8ced1"></path><path d="M369 0L295 0L327 71Z" fill="#969fa4" stroke="#969fa4"></path><path d="M214 114L167 56L189 139Z" fill="#29353f" stroke="#29353f"></path><path d="M606 50L613 160L675 110Z" fill="#3d4852" stroke="#3d4852"></path><path d="M562 79L503 0L484 38Z" fill="#68727a" stroke="#68727a"></path><path d="M456 600L516 600L453 509Z" fill="#00101c" stroke="#00101c"></path><path d="M675 110L613 160L660 180Z" fill="#3d4852" stroke="#3d4852"></path><path d="M516 600L626 539L542 499Z" fill="#16222d" stroke="#16222d"></path><path d="M51 257L119 316L170 232Z" fill="#afb6ba" stroke="#afb6ba"></path><path d="M119 316L70 333L112 398Z" fill="#3d4852" stroke="#3d4852"></path><path d="M295 0L252 0L327 71Z" fill="#3d4852" stroke="#3d4852"></path><path d="M189 139L80 161L170 232Z" fill="#afb6ba" stroke="#afb6ba"></path><path d="M766 173L675 110L660 180Z" fill="#68727a" stroke="#68727a"></path><path d="M252 0L167 56L233 105Z" fill="#e2e6e8" stroke="#e2e6e8"></path><path d="M83 96L80 161L189 139Z" fill="#969fa4" stroke="#969fa4"></path><path d="M108 513L135 531L150 412Z" fill="#7f888f" stroke="#7f888f"></path><path d="M240 526L208 600L337 600Z" fill="#7f888f" stroke="#7f888f"></path><path d="M108 513L150 412L112 398Z" fill="#e2e6e8" stroke="#e2e6e8"></path><path d="M80 161L51 257L170 232Z" fill="#e2e6e8" stroke="#e2e6e8"></path><path d="M184 600L208 600L240 526Z" fill="#969fa4" stroke="#969fa4"></path><path d="M744 394L751 261L663 337Z" fill="#68727a" stroke="#68727a"></path><path d="M705 221L766 173L660 180Z" fill="#e2e6e8" stroke="#e2e6e8"></path><path d="M762 453L744 394L685 433Z" fill="#00101c" stroke="#00101c"></path><path d="M685 433L744 394L663 337Z" fill="#00101c" stroke="#00101c"></path><path d="M49 418L108 513L112 398Z" fill="#29353f" stroke="#29353f"></path><path d="M135 531L184 600L240 526Z" fill="#c8ced1" stroke="#c8ced1"></path><path d="M49 418L112 398L38 391Z" fill="#c8ced1" stroke="#c8ced1"></path><path d="M36 600L184 600L135 531Z" fill="#3d4852" stroke="#3d4852"></path><path d="M38 391L112 398L70 333Z" fill="#00101c" stroke="#00101c"></path><path d="M516 600L615 600L626 539Z" fill="#00101c" stroke="#00101c"></path><path d="M626 539L697 533L620 474Z" fill="#525d66" stroke="#525d66"></path><path d="M647 0L613 0L606 50Z" fill="#29353f" stroke="#29353f"></path><path d="M606 50L613 0L503 0Z" fill="#afb6ba" stroke="#afb6ba"></path><path d="M0 329L38 391L70 333Z" fill="#969fa4" stroke="#969fa4"></path><path d="M93 0L83 96L167 56Z" fill="#00101c" stroke="#00101c"></path><path d="M167 56L83 96L189 139Z" fill="#525d66" stroke="#525d66"></path><path d="M0 237L0 329L51 257Z" fill="#3d4852" stroke="#3d4852"></path><path d="M751 261L765 214L705 221Z" fill="#00101c" stroke="#00101c"></path><path d="M675 110L647 0L606 50Z" fill="#68727a" stroke="#68727a"></path><path d="M814 213L765 214L751 261Z" fill="#525d66" stroke="#525d66"></path><path d="M654 600L697 533L626 539Z" fill="#16222d" stroke="#16222d"></path><path d="M765 214L766 173L705 221Z" fill="#969fa4" stroke="#969fa4"></path><path d="M780 0L647 0L675 110Z" fill="#e2e6e8" stroke="#e2e6e8"></path><path d="M615 600L654 600L626 539Z" fill="#16222d" stroke="#16222d"></path><path d="M734 564L762 453L697 533Z" fill="#525d66" stroke="#525d66"></path><path d="M697 533L762 453L685 433Z" fill="#afb6ba" stroke="#afb6ba"></path><path d="M864 279L814 213L751 261Z" fill="#00101c" stroke="#00101c"></path><path d="M765 214L814 213L766 173Z" fill="#00101c" stroke="#00101c"></path><path d="M51 257L0 329L70 333Z" fill="#c8ced1" stroke="#c8ced1"></path><path d="M38 391L0 407L49 418Z" fill="#7f888f" stroke="#7f888f"></path><path d="M0 237L51 257L80 161Z" fill="#68727a" stroke="#68727a"></path><path d="M252 0L134 0L167 56Z" fill="#c8ced1" stroke="#c8ced1"></path><path d="M0 133L80 161L83 96Z" fill="#3d4852" stroke="#3d4852"></path><path d="M0 133L0 237L80 161Z" fill="#16222d" stroke="#16222d"></path><path d="M0 329L0 407L38 391Z" fill="#00101c" stroke="#00101c"></path><path d="M49 418L0 457L108 513Z" fill="#e2e6e8" stroke="#e2e6e8"></path><path d="M108 513L36 600L135 531Z" fill="#68727a" stroke="#68727a"></path><path d="M839 346L751 261L744 394Z" fill="#29353f" stroke="#29353f"></path><path d="M766 173L788 68L675 110Z" fill="#7f888f" stroke="#7f888f"></path><path d="M654 600L734 564L697 533Z" fill="#c8ced1" stroke="#c8ced1"></path><path d="M0 407L0 457L49 418Z" fill="#00101c" stroke="#00101c"></path><path d="M134 0L93 0L167 56Z" fill="#525d66" stroke="#525d66"></path><path d="M0 95L0 133L83 96Z" fill="#16222d" stroke="#16222d"></path><path d="M836 422L839 346L744 394Z" fill="#afb6ba" stroke="#afb6ba"></path><path d="M836 422L744 394L762 453Z" fill="#afb6ba" stroke="#afb6ba"></path><path d="M0 0L0 95L83 96Z" fill="#c8ced1" stroke="#c8ced1"></path><path d="M0 457L0 509L108 513Z" fill="#16222d" stroke="#16222d"></path><path d="M863 520L836 422L762 453Z" fill="#7f888f" stroke="#7f888f"></path><path d="M845 175L766 173L814 213Z" fill="#16222d" stroke="#16222d"></path><path d="M845 175L788 68L766 173Z" fill="#7f888f" stroke="#7f888f"></path><path d="M654 600L752 600L734 564Z" fill="#afb6ba" stroke="#afb6ba"></path><path d="M734 564L863 520L762 453Z" fill="#3d4852" stroke="#3d4852"></path><path d="M900 192L845 175L814 213Z" fill="#68727a" stroke="#68727a"></path><path d="M900 326L864 279L839 346Z" fill="#969fa4" stroke="#969fa4"></path><path d="M839 346L864 279L751 261Z" fill="#969fa4" stroke="#969fa4"></path><path d="M0 509L36 600L108 513Z" fill="#e2e6e8" stroke="#e2e6e8"></path><path d="M804 0L780 0L788 68Z" fill="#00101c" stroke="#00101c"></path><path d="M788 68L780 0L675 110Z" fill="#c8ced1" stroke="#c8ced1"></path><path d="M0 509L0 600L36 600Z" fill="#e2e6e8" stroke="#e2e6e8"></path><path d="M93 0L0 0L83 96Z" fill="#29353f" stroke="#29353f"></path><path d="M900 343L900 326L839 346Z" fill="#525d66" stroke="#525d66"></path><path d="M864 279L900 192L814 213Z" fill="#c8ced1" stroke="#c8ced1"></path><path d="M900 343L839 346L836 422Z" fill="#afb6ba" stroke="#afb6ba"></path><path d="M900 445L900 343L836 422Z" fill="#afb6ba" stroke="#afb6ba"></path><path d="M837 38L788 68L900 96Z" fill="#3d4852" stroke="#3d4852"></path><path d="M837 38L804 0L788 68Z" fill="#29353f" stroke="#29353f"></path><path d="M900 96L788 68L845 175Z" fill="#68727a" stroke="#68727a"></path><path d="M831 600L863 520L734 564Z" fill="#969fa4" stroke="#969fa4"></path><path d="M900 326L900 192L864 279Z" fill="#c8ced1" stroke="#c8ced1"></path><path d="M863 520L900 445L836 422Z" fill="#16222d" stroke="#16222d"></path><path d="M752 600L831 600L734 564Z" fill="#7f888f" stroke="#7f888f"></path><path d="M863 520L900 511L900 445Z" fill="#29353f" stroke="#29353f"></path><path d="M900 192L900 126L845 175Z" fill="#afb6ba" stroke="#afb6ba"></path><path d="M900 126L900 96L845 175Z" fill="#7f888f" stroke="#7f888f"></path><path d="M837 38L900 0L804 0Z" fill="#7f888f" stroke="#7f888f"></path><path d="M900 600L900 511L863 520Z" fill="#3d4852" stroke="#3d4852"></path><path d="M831 600L900 600L863 520Z" fill="#00101c" stroke="#00101c"></path><path d="M900 96L900 0L837 38Z" fill="#969fa4" stroke="#969fa4"></path></g></svg>